<svg id="settings" width="18" height="18" viewBox="0 0 18 18" fill="none" xmlns="http://www.w3.org/2000/svg">
<path d="M9.54026 8.77327V0.505934C9.54026 0.224859 9.3088 0 9.01947 0C8.73015 0 8.49868 0.224859 8.49868 0.505934V8.77327C7.29123 9.00937 6.37695 10.0475 6.37695 11.2917C6.37695 12.5359 7.29123 13.574 8.49868 13.8101V17.4903C8.49868 17.7714 8.73015 17.9963 9.01947 17.9963C9.3088 17.9963 9.54026 17.7714 9.54026 17.4903V13.8101C10.7477 13.574 11.662 12.5359 11.662 11.2917C11.662 10.0512 10.7516 9.00937 9.54026 8.77327ZM9.01947 12.847C8.13606 12.847 7.41853 12.1499 7.41853 11.2917C7.41853 10.4335 8.13606 9.73641 9.01947 9.73641C9.90289 9.73641 10.6204 10.4335 10.6204 11.2917C10.6204 12.1499 9.90289 12.847 9.01947 12.847Z" fill="currentColor"/>
<path d="M3.16331 4.53092V0.505934C3.16331 0.224859 2.93185 0 2.64252 0C2.35319 0 2.12173 0.224859 2.12173 0.505934V4.53092C0.914273 4.76702 0 5.80512 0 7.04935C0 8.29357 0.914273 9.33167 2.12173 9.56777V17.4903C2.12173 17.7714 2.35319 17.9963 2.64252 17.9963C2.93185 17.9963 3.16331 17.7714 3.16331 17.4903V9.56402C4.37077 9.32792 5.28504 8.28982 5.28504 7.0456C5.28504 5.80137 4.37077 4.76702 3.16331 4.53092ZM2.64252 8.60462C1.75911 8.60462 1.04158 7.90756 1.04158 7.04935C1.04158 6.19113 1.75911 5.49407 2.64252 5.49407C3.52593 5.49407 4.24346 6.19113 4.24346 7.04935C4.24346 7.90756 3.52207 8.60462 2.64252 8.60462Z" fill="currentColor"/>
<path d="M15.8782 4.53092V0.505934C15.8782 0.224859 15.6467 0 15.3574 0C15.068 0 14.8366 0.224859 14.8366 0.505934V4.53092C13.6291 4.76702 12.7148 5.80512 12.7148 7.04934C12.7148 8.29357 13.6291 9.33167 14.8366 9.56777V17.4941C14.8366 17.7751 15.068 18 15.3574 18C15.6467 18 15.8782 17.7751 15.8782 17.4941V9.56402C17.0856 9.32792 17.9999 8.28982 17.9999 7.0456C17.9999 5.80137 17.0895 4.76702 15.8782 4.53092ZM15.3574 8.60462C14.474 8.60462 13.7564 7.90756 13.7564 7.04934C13.7564 6.19113 14.474 5.49407 15.3574 5.49407C16.2408 5.49407 16.9583 6.19113 16.9583 7.04934C16.9583 7.90756 16.2408 8.60462 15.3574 8.60462Z" fill="currentColor"/>
</svg>
